<svg class="ss-emblem"
   xmlns:dc="http://purl.org/dc/elements/1.1/"
   xmlns:cc="http://creativecommons.org/ns#"
   xmlns:rdf="http://www.w3.org/1999/02/22-rdf-syntax-ns#"
   xmlns:svg="http://www.w3.org/2000/svg"
   xmlns="http://www.w3.org/2000/svg"
   id="svg2"
   version="1.1"
   xml:space="preserve" viewBox="0 0 56.574784 55.815872">
      <style> /* <![CDATA[ */ 
        path {
            fill: rgba(255,255,255, 0.33);
        }
    /* ]]> */ </style>
          <path d="M 27.32377,1.864903e-6 A 28.28736,28.28736 0 0 0 0,28.253192 a 28.28736,28.28736 0 0 0 1.56085,9.16178 c 1.74593,-0.77407 3.54312,-1.42144 5.43297,-1.8452 0.55268,-0.12393 1.10842,-0.22745 1.66671,-0.31485 1.12852,-3.73253 3.46002,-7.16672 6.82152,-9.37348 1.77179,-1.16317 3.81458,-1.97667 5.95159,-2.25057 2.13699,-0.2739 4.36653,0.005 6.30662,0.8957 2.41395,1.10859 4.30116,3.14007 5.32736,5.4858 1.33643,3.05492 1.19801,6.69933 -0.55458,9.5597 -1.46443,2.39 -4.06,4.17704 -6.94944,4.5752 -1.44472,0.19907 -2.94366,0.0567 -4.30845,-0.43387 -1.36481,-0.49052 -2.59107,-1.33073 -3.48835,-2.42034 -1.04937,-1.27434 -1.63267,-2.87095 -1.72671,-4.48396 -0.0291,-0.49824 -0.0124,-0.99735 0.0461,-1.49269 -1.64743,0.0508 -3.29257,0.11245 -4.92004,0.27272 -0.12649,0.69345 -0.21333,1.39362 -0.26254,2.09534 -0.26679,3.80235 0.57629,7.73152 2.77487,10.92446 1.50221,2.18163 3.6097,3.97927 6.03391,5.21182 2.42421,1.23252 5.15894,1.90216 7.90959,1.98649 4.53302,0.13907 9.19207,-1.40377 12.30954,-4.52039 2.25331,-2.25271 3.62724,-5.23119 4.08135,-8.30278 0.49052,-3.318 -0.0693,-6.75939 -1.52663,-9.81284 -2.32937,-4.88045 -6.76147,-8.56555 -11.37468,-11.66818 -1.6556,-1.11349 -3.35497,-2.17564 -4.9064,-3.41617 -1.55143,-1.24062 -2.96349,-2.67641 -3.90285,-4.38038 C 20.87292,11.113722 20.64666,7.9265919 21.8149,5.2192719 22.82363,2.8816519 24.85854,0.95970186 27.32374,1.8649029e-6 Z M 30.47026,0.94876186 c -0.73871,-0.003 -1.47834,0.11688004 -2.1727,0.35525004 -1.01637,0.34894 -1.93439,0.94239 -2.6658,1.69572 -0.73143,0.75332 -1.27686,1.66414 -1.6077,2.63802 -0.76538,2.25299 -0.34677,4.7837301 0.86076,6.8562401 1.71022,2.93527 4.7815,4.88849 7.69342,6.79745 4.95032,3.24527 9.90569,6.83968 12.80387,11.83453 2.19658,3.78566 3.06607,8.28115 2.22896,12.52646 -0.64927,3.29265 -2.32473,6.40082 -4.76832,8.82142 A 28.28736,28.28736 0 0 0 56.57478,28.253192 28.28736,28.28736 0 0 0 37.44871,1.5219319 c 1.50042,2.73465 1.16889,6.13874 1.16889,13.1140101 l -2.37573,0 0,-7.1215201 c 0,-3.46896 -1.59605,-5.27434 -3.02575,-5.9563 C 32.3681,1.1536719 31.42,0.95136186 30.47026,0.94876186 Z M 22.31472,24.557082 c -0.8392,0.004 -1.67965,0.12913 -2.48308,0.35996 -1.4283,0.41032 -2.74106,1.14627 -3.86716,2.07327 -1.59851,1.31585 -2.82533,3.01333 -3.65396,4.85833 -0.44842,0.99837 -0.7816,2.03946 -1.01594,3.10161 1.61965,-0.13245 3.25242,-0.18382 4.88484,-0.24395 0.16847,-0.89631 0.47079,-1.77199 0.88404,-2.59464 0.56708,-1.12888 1.35461,-2.1771 2.40153,-2.93947 1.04694,-0.76237 2.36824,-1.22165 3.68619,-1.13518 1.06722,0.07 2.11972,0.51257 2.82121,1.27674 0.35076,0.38208 0.61131,0.83941 0.7435,1.3298 0.13215,0.49036 0.13459,1.01327 -0.005,1.50184 -0.15074,0.52774 -0.46426,1.00824 -0.86919,1.39821 -0.40492,0.39 -0.8992,0.69159 -1.42722,0.91356 -1.0561,0.44394 -2.22738,0.56938 -3.37976,0.65126 -0.97185,0.0691 -1.94826,0.11084 -2.92585,0.14428 0.0142,0.16113 0.0324,0.32232 0.059,0.48218 0.15695,0.94204 0.53772,1.85516 1.14237,2.61821 1.02427,1.29258 2.68468,2.09979 4.38975,2.18656 1.70512,0.0867 3.42737,-0.53336 4.67834,-1.63297 1.05912,-0.93103 1.78069,-2.18325 2.12062,-3.51266 0.34002,-1.32947 0.30737,-2.7325 -0.006,-4.06773 -0.35469,-1.51046 -1.07453,-2.95288 -2.14817,-4.12003 -1.07365,-1.16714 -2.50686,-2.05007 -4.09226,-2.42978 -0.63309,-0.15164 -1.28473,-0.22239 -1.93743,-0.2194 l 0,0 z m -0.0729,4.6689 c -0.056,0 -0.11207,0 -0.16807,0 -0.14934,0.004 -0.29847,0.0195 -0.44526,0.0449 -0.58701,0.10158 -1.13743,0.36353 -1.59703,0.72367 -0.91923,0.72024 -1.45395,1.80006 -1.72696,2.89931 -0.14083,0.56707 -0.21819,1.14974 -0.22212,1.7319 0.79101,-0.0401 1.58082,-0.0908 2.36755,-0.1636 0.83451,-0.0773 1.67973,-0.1825 2.44836,-0.49954 0.3843,-0.15854 0.74646,-0.36991 1.05139,-0.64209 0.30495,-0.2722 0.55141,-0.60657 0.69267,-0.98 0.20154,-0.53268 0.17862,-1.13683 -0.0553,-1.65754 -0.23393,-0.52073 -0.67472,-0.95379 -1.21205,-1.20212 -0.3519,-0.16263 -0.74125,-0.24598 -1.1332,-0.25533 z m -13.78063,6.73873 c -0.5597,0.10376 -1.11665,0.22485 -1.66943,0.36816 -1.72612,0.44746 -3.37536,1.09812 -4.97162,1.86328 a 28.28736,28.28736 0 0 0 10.3617,13.30241 c -0.41809,-0.50143 -0.8136,-1.02304 -1.18452,-1.56282 -2.65395,-3.86226 -3.6803,-8.62813 -2.72999,-13.14625 0.0581,-0.27605 0.12292,-0.55091 0.19386,-0.82478 z" />
        </svg>