<?xml version="1.0" encoding="UTF-8" standalone="no"?>
<svg
   xmlns:dc="http://purl.org/dc/elements/1.1/"
   xmlns:cc="http://creativecommons.org/ns#"
   xmlns:rdf="http://www.w3.org/1999/02/22-rdf-syntax-ns#"
   xmlns:svg="http://www.w3.org/2000/svg"
   xmlns="http://www.w3.org/2000/svg"
   viewBox="0 0 398.961 303.228"
   height="303.228"
   width="398.961"
   xml:space="preserve"
   version="1.1"
   id="svg2">
   <style> /* <![CDATA[ */ path { fill: #D8605D; } /* ]]> */ </style>

	<path d="m 0.271484,223.1671 0,18.3558 21.791016,0 0,60.30627 20.9,0 0,-60.30627 21.6746,0 0,-18.3558 -64.365616,0" />
	<path d="m 141.707,233.2608 c -3.717,-3.5637 -8.195,-6.3789 -13.309,-8.3738 -5.114,-1.9922 -10.715,-3.002 -16.646,-3.002 -6.007,0 -11.627,1.0098 -16.7036,3.0039 -5.0738,1.9911 -9.55,4.8071 -13.3046,8.37 -3.7567,3.564 -6.7301,7.8902 -8.8407,12.857 -2.1105,4.9711 -3.1804,10.5019 -3.1804,16.441 0,5.9391 1.0699,11.4711 3.1804,16.4379 2.1106,4.9711 5.0832,9.2973 8.8407,12.8594 3.7488,3.55974 8.2257,6.37575 13.3046,8.36989 5.0766,1.99375 10.6966,3.00391 16.7036,3.00391 5.931,0 11.532,-1.01016 16.646,-3.00313 5.12,-1.9957 9.597,-4.81289 13.309,-8.37187 3.716,-3.5648 6.669,-7.8898 8.778,-12.8582 2.113,-4.9668 3.182,-10.4957 3.182,-16.4379 0,-5.9391 -1.069,-11.4699 -3.182,-16.441 -2.109,-4.9649 -5.062,-9.2899 -8.778,-12.8551 m -21.448,49.6672 c -2.536,1.1359 -5.4,1.7121 -8.507,1.7121 -3.186,0 -6.086,-0.5762 -8.622,-1.7121 -2.541,-1.1398 -4.7277,-2.7129 -6.4987,-4.6781 -1.7817,-1.9719 -3.186,-4.3199 -4.17,-6.9778 -0.9867,-2.6601 -1.4879,-5.591 -1.4879,-8.7152 0,-3.123 0.5012,-6.0551 1.4879,-8.716 0.984,-2.6551 2.3883,-5.0027 4.17,-6.977 1.7765,-1.9679 3.9637,-3.5429 6.4987,-4.6769 2.536,-1.1379 5.436,-1.7129 8.622,-1.7129 3.107,0 5.971,0.575 8.507,1.7129 2.533,1.1332 4.72,2.709 6.499,4.6769 1.782,1.975 3.183,4.3219 4.17,6.977 0.988,2.666 1.489,5.5973 1.489,8.716 0,3.1191 -0.501,6.05 -1.489,8.7152 -0.987,2.6579 -2.388,5.0039 -4.17,6.9778 -1.775,1.9652 -3.961,3.5383 -6.499,4.6781"  />
	<path d="m 229.287,233.6581 c -3.748,-3.3653 -8.259,-5.9832 -13.409,-7.7852 -5.142,-1.7949 -10.865,-2.7058 -17.011,-2.7058 l -33.006,0 0,78.6609 33.122,0 c 6.073,0 11.758,-0.91016 16.895,-2.70508 5.15,-1.8 9.662,-4.43789 13.411,-7.84612 3.751,-3.4078 6.722,-7.5777 8.83,-12.3918 2.11,-4.8179 3.179,-10.3519 3.179,-16.4461 0,-6.091 -1.069,-11.6257 -3.179,-16.4441 -2.108,-4.8109 -5.079,-8.9637 -8.832,-12.3367 m -9.241,28.7808 c 0,2.8121 -0.48,5.5289 -1.429,8.0743 -0.948,2.5386 -2.329,4.7867 -4.106,6.6808 -1.777,1.8918 -4.004,3.4281 -6.616,4.5641 -2.611,1.1379 -5.632,1.7148 -8.978,1.7148 l -12.155,0 0,-41.95 12.272,0 c 3.499,0 6.6,0.5403 9.219,1.6012 2.607,1.0609 4.81,2.5551 6.547,4.441 1.739,1.8957 3.061,4.1231 3.931,6.6168 0.874,2.5102 1.315,5.291 1.315,8.257"  />
	<path d="m 297.797,223.1671 -25.763,0 -29.355,78.08082 -0.219,0.58008 23.651,0 3.846,-11.1969 30.035,0 3.845,11.1969 23.651,0 -29.585,-78.382 -0.106,-0.2789 z m -3.575,49.1078 -18.613,0 9.307,-27.5098 9.306,27.5098"  />
	<path d="m 375.213,223.1671 -16.42,28.2738 -16.649,-28.2738 -23.633,0 29.834,46.9789 0,31.68317 20.903,0 0,-31.68317 29.713,-46.9789 -23.748,0" />
	<path d="m 51.5387,187.726 c 5.1,-76.117 68.6013,-136.484 145.9183,-136.484 77.61,0 141.308,60.831 145.983,137.37 0.186,2.987 0.283,5.997 0.283,9.035 l 51.185,0 c 0,-2.716 -0.052,-5.422 -0.164,-8.109 C 390.503,84.14 303.796,0 197.457,0 91.8418,0 5.5832,83.011 0.261719,187.405 0.0847656,190.795 0,194.208 0,197.647 l 51.1949,0 c 0,-3.337 0.1137,-6.643 0.3438,-9.921" />
	<path d="m 117.553,188.324 c 4.63,-40.022 38.7,-71.197 79.904,-71.197 41.421,0 75.632,31.497 79.974,71.812 0.32,2.868 0.471,5.761 0.471,8.708 l 51.186,0 c 0,-2.818 -0.085,-5.606 -0.255,-8.379 C 324.517,120.4 267.349,65.887 197.457,65.887 c -69.792,0 -126.8832,54.359 -131.3535,123.074 -0.1918,2.872 -0.2828,5.767 -0.2828,8.686 l 51.1953,0 c 0,-3.157 0.179,-6.263 0.537,-9.323"  />
	<path d="m 197.457,131.767 c -32.089,0 -58.821,22.986 -64.634,53.407 -0.78,4.04 -1.183,8.206 -1.183,12.473 l 131.635,0 c 0,-3.182 -0.227,-6.31 -0.668,-9.371 -4.541,-31.951 -31.97,-56.509 -65.15,-56.509"  />
</svg>
