<?xml version="1.0" encoding="UTF-8" standalone="no"?>
<svg
   xmlns:dc="http://purl.org/dc/elements/1.1/"
   xmlns:cc="http://creativecommons.org/ns#"
   xmlns:rdf="http://www.w3.org/1999/02/22-rdf-syntax-ns#"
   xmlns:svg="http://www.w3.org/2000/svg"
   xmlns="http://www.w3.org/2000/svg"
   viewBox="0 0 270.39346 108.42367"
   height="108.42367"
   width="270.39346"
   xml:space="preserve"
   version="1.1"
   id="svg2">
   <style> /* <![CDATA[ */ path { fill: #D8605D; } /* ]]> */ </style>
   <path d="m 0.021875,6.1e-4 0,14.376556 c 7.03008,0.0512 7.283593,6.74028 7.282813,7.77188 l 0,43.245307 C 7.310888,70.274063 5.44687,73.456118 0,73.495918 l 0,14.281251 37.39375,0 0,-14.585939 c -5.4461,-0.0387 -7.238813,-2.958971 -7.232812,-7.839061 l 0,-12.123443 6.364062,0.009 c 7.5731,-0.28129 13.954262,0.63985 20.839062,-6.75624 -0.1922,2.041 -0.740625,6.19142 -0.740625,8.32812 -0.258199,10.613299 0.974604,20.45781 7.375005,26.957811 0.157,0.160096 6.52426,7.479656 17.16406,7.614064 5.9227,0.07656 19.410308,-1.042248 22.995308,-21.326568 0.822,2.729719 5.16369,21.34688 24.35469,21.34688 19.367,0 23.40587,-17.630405 24.37187,-23.082816 l 0,21.685936 c -0.045,5.775304 -4.28512,8.368792 -6.92812,8.442192 l 0.002,11.976555 31.48906,-0.011 0,-11.965619 c -3.491,-0.467512 -6.77937,-3.72344 -6.83437,-8.868752 l -0.26407,-8.28906 c 2.751,7.612492 10.19738,10.109316 13.23438,10.120316 3.622,0.01168 11.88506,-1.981688 14.23906,-16.421878 l 0,14.76875 26.98438,0 0,-14.610938 c 3.421,22.439394 42.55575,22.212914 44.89375,-6.084374 l -18.5875,0 c -0.692,4.056987 -2.48256,7.281562 -5.87656,7.264062 -4.17,0.0222 -5.92038,-4.796497 -6.18438,-10.120318 -0.095,-1.9008 -0.21256,-3.965603 -0.10156,-5.195313 l 31.29843,-0.008 c 0.287,-6.4121 0.62726,-16.30788 -4.14375,-25.67188 -3.726,-7.3164 -10.99825,-13.03949 -21.25625,-13.03749 -10.102,0.002 -22.10343,6.88124 -24.44843,28.38593 l 0,-48.545306 -25.72344,0 0.0141,11.968746 c 4.33,-0.0211 6.975,2.21289 7,6.54219 l 0,30.01562 c -2.803,-22.54247 -13.72169,-28.46322 -19.05469,-28.43122 -5.529,0.0328 -10.98293,3.38832 -12.61093,9.56562 l 0,-8.18281 -22.10313,0 0,12.71875 c -3.502,-10.318 -14.29182,-14.13317 -20.60782,-14.10937 -3.519,0.0133 -18.548,1.55743 -22.95,21.94843 -4.078,-26.7629 -28.436238,-24.76864 -38.718738,-15.82656 -0.5457,-6.7457 -1.88825,-15.85782 -8.618754,-21.157816 C 53.386738,2.31737 47.978613,0 40.373913,0 L 0.022351,0 Z m 30.201562,16.604676 5.245313,0 c 4.0848,0 6.403124,3.43118 6.403124,10.03438 0,7.2609 -1.656624,10.12349 -6.403124,10.25469 l -5.245313,0 0,-20.28907 z M 176.8375,34.839666 c 3.995,0.1754 6.28906,5.27893 6.28906,20.15313 0,13.544495 -2.53906,19.307809 -6.78906,19.307809 -3.804,0 -5.13907,-4.123108 -5.13907,-9.549996 l 0,-20.006253 c -0.203,-6.7851 1.76907,-10.07389 5.63907,-9.90469 z m -95.199998,0.17188 c 4.1699,-0.0222 5.79028,5.07736 6.05468,10.40156 0.0899,1.807 0.1227,1.88667 0,3.23438 l -12.37031,0 c -0.1222,-1.34771 -0.0898,-1.42738 0,-3.23438 0.2649,-5.3242 2.14613,-10.42376 6.31563,-10.40156 z m 46.860928,0.38281 c 4.868,0.068 6.80625,8.7473 6.80625,19.5375 0,10.788697 -1.80725,19.603999 -6.80625,19.537499 -4.868,-0.0648 -6.80781,-8.748802 -6.80781,-19.537499 0,-10.7902 2.07081,-19.6039 6.80781,-19.5375 z m 116.62031,0.011 c 4.17,-0.0227 5.92195,4.68361 6.18594,10.00781 0.089,1.807 0.12202,1.88668 0,3.23438 l -12.37187,0 c -0.122,-1.3477 -0.089,-1.42738 0,-3.23438 0.265,-5.3242 2.01593,-10.03051 6.18593,-10.00781 z m -142.2,23.6 c 0.09,3.160901 0.18751,4.017941 1.01251,8.085941 l -16.303128,0.008 c -0.6918,4.057808 -2.48316,7.244064 -5.87656,7.226564 l 0,0.0016 c -4.1695,0.0222 -5.91987,-4.798062 -6.18437,-10.121876 -0.0937,-1.9008 -0.21337,-3.964049 -0.10157,-5.193739 l 27.453118,-0.006 z" />
   </svg>
