<?xml version="1.0" encoding="UTF-8" standalone="no"?>
<svg
   xmlns:dc="http://purl.org/dc/elements/1.1/"
   xmlns:cc="http://creativecommons.org/ns#"
   xmlns:rdf="http://www.w3.org/1999/02/22-rdf-syntax-ns#"
   xmlns:svg="http://www.w3.org/2000/svg"
   xmlns="http://www.w3.org/2000/svg"
   id="svg2"
   version="1.1"
   xml:space="preserve"
   width="369.875"
   height="197.58749"
   viewBox="0 0 369.875 197.58749">
<style> /* <![CDATA[ */ path { fill: #D8605D; } /* ]]> */ </style>
	<path d="M 113.96289 0.62304688 C 101.18852 0.62304688 90.794922 10.791562 90.794922 23.289062 C 90.794922 35.786563 101.28917 45.953125 114.18555 45.953125 C 126.6818 45.953125 137.24023 35.804063 137.24023 23.789062 L 137.24023 20.4375 L 113.99805 20.4375 L 113.99805 29.679688 L 124.24609 29.679688 C 121.92434 34.464688 118.22618 35.322266 114.18555 35.322266 C 104.9888 35.322266 102.19531 28.765703 102.19531 23.345703 C 102.19531 17.879453 104.86816 11.005859 113.79492 11.005859 C 118.65729 11.005859 122.1592 12.889531 123.81445 15.425781 L 124.17383 15.974609 L 135.68945 15.974609 L 135.10742 14.351562 C 132.72117 7.6965625 124.49902 0.62304688 113.96289 0.62304688 z " />
     <path d="M 298.4043 50.451172 C 285.6893 50.451172 275.3418 60.328203 275.3418 72.470703 C 275.3418 84.612328 285.78625 94.490234 298.625 94.490234 C 311.0675 94.490234 321.57812 84.629859 321.57812 72.958984 L 321.57812 69.703125 L 298.43945 69.703125 L 298.43945 78.681641 L 308.64062 78.681641 C 306.33188 83.330016 302.64875 84.162109 298.625 84.162109 C 289.47 84.162109 286.69141 77.791469 286.69141 72.527344 C 286.69141 67.214844 289.35133 60.539063 298.23633 60.539062 C 303.07758 60.539062 306.56414 62.368281 308.21289 64.832031 L 308.56836 65.367188 L 320.03711 65.367188 L 319.45703 63.791016 C 317.08203 57.323516 308.8943 50.451172 298.4043 50.451172 z "  />
     <path d="M 161.95898 0.62304688 C 149.40023 0.62304688 139.18164 10.839141 139.18164 23.400391 C 139.18164 35.834141 149.40023 45.953125 161.95898 45.953125 C 174.51723 45.953125 184.73438 35.834141 184.73438 23.400391 C 184.73438 10.839141 174.51773 0.62304687 161.95898 0.62304688 z M 161.96094 11.195312 C 168.43094 11.195312 173.69336 16.643594 173.69336 23.339844 C 173.69336 29.978594 168.43094 35.380859 161.96094 35.380859 C 155.49094 35.380859 150.22852 29.978594 150.22852 23.339844 C 150.22852 16.643594 155.49094 11.195313 161.96094 11.195312 z " />
     <path d="M 210.01172 0.62304688 C 197.45172 0.62304688 187.23438 10.839141 187.23438 23.400391 C 187.23438 35.834141 197.45172 45.953125 210.01172 45.953125 C 222.57072 45.953125 232.78711 35.834141 232.78711 23.400391 C 232.78711 10.839141 222.57047 0.62304687 210.01172 0.62304688 z M 210.00586 11.195312 C 216.47461 11.195312 221.73828 16.643594 221.73828 23.339844 C 221.73828 29.978594 216.47461 35.380859 210.00586 35.380859 C 203.53836 35.380859 198.27344 29.978594 198.27344 23.339844 C 198.27344 16.643594 203.53836 11.195313 210.00586 11.195312 z " />
     <path d="M 235.56836 1.4609375 L 235.56836 45.117188 L 247.15039 45.117188 C 253.76039 45.117188 258.94539 44.164922 262.55664 42.294922 C 269.43164 38.813672 273.87695 31.395391 273.87695 23.400391 C 273.87695 16.920391 270.8193 10.302422 266.0918 6.5449219 C 263.35555 4.3599219 258.395 1.4609375 246.96875 1.4609375 L 235.56836 1.4609375 z M 246.41211 11.015625 L 246.66797 11.015625 C 251.66797 11.015625 255.62852 11.547422 258.72852 14.169922 C 261.38227 16.323672 263.0293 19.860391 263.0293 23.400391 C 263.0293 27.809141 260.67828 31.855469 257.05078 33.699219 C 253.85453 35.284219 251.21461 35.560547 246.84961 35.560547 L 246.41211 35.560547 L 246.41211 11.015625 z " />
     <path d="M 43.007812 51.511719 L 43.007812 94.421875 L 54.386719 94.421875 L 54.386719 72.099609 L 63.068359 94.421875 L 71.324219 94.421875 L 80.005859 71.970703 L 80.005859 94.421875 L 91.384766 94.421875 L 91.384766 51.511719 L 76.140625 51.511719 L 67.246094 76.283203 L 58.25 51.511719 L 43.007812 51.511719 z " />
     <path d="M 116.99023 50.693359 C 104.34185 50.693359 94.052734 60.734625 94.052734 73.078125 C 94.052734 85.29975 104.34185 95.242188 116.99023 95.242188 C 129.63823 95.242188 139.92969 85.29975 139.92969 73.078125 C 139.92969 60.734625 129.63823 50.693359 116.99023 50.693359 z M 116.98242 61.332031 C 123.35792 61.332031 128.54688 66.572844 128.54688 73.011719 C 128.54688 79.395969 123.35792 84.587891 116.98242 84.587891 C 110.60792 84.587891 105.42188 79.395969 105.42188 73.011719 C 105.42188 66.572844 110.60792 61.332031 116.98242 61.332031 z " />
     <path d="M 141.69141 51.511719 L 141.69141 94.421875 L 153.06836 94.421875 L 153.06836 81.384766 L 162.32227 94.421875 L 174.68945 94.421875 L 163.04492 78.986328 C 164.78367 78.481953 166.74609 77.659625 168.74609 75.796875 C 171.96234 72.775875 173.10352 68.224141 173.10352 65.244141 C 173.10352 59.577891 169.76203 56.089375 167.76953 54.515625 C 165.10328 52.410625 161.85289 51.511719 156.90039 51.511719 L 141.69141 51.511719 z M 153.06836 60.904297 L 156.78711 60.904297 C 162.67836 60.904297 162.97461 65.023359 162.97461 65.849609 C 162.97461 67.367109 162.37336 70.900391 156.78711 70.900391 L 153.06836 70.900391 L 153.06836 60.904297 z " />
     <path d="M 219.84961 51.511719 L 219.84961 94.421875 L 229.97852 94.421875 L 229.97852 51.511719 L 219.84961 51.511719 z " />
     <path d="M 176.57227 51.511719 L 176.57227 94.421875 L 187.59375 94.421875 L 187.59375 70.466797 L 203.12109 94.421875 L 214.88281 94.421875 L 214.88281 51.511719 L 203.50586 51.511719 L 203.50586 75.429688 L 188.15039 51.511719 L 176.57227 51.511719 z "  />
     <path d="M 234.57422 51.511719 L 234.57422 94.421875 L 245.59766 94.421875 L 245.59766 70.466797 L 261.125 94.421875 L 272.88672 94.421875 L 272.88672 51.511719 L 261.50781 51.511719 L 261.50781 75.429688 L 246.15234 51.511719 L 234.57422 51.511719 z "  />
     <path d="M 328.73242 100.94531 L 304.68945 158.31641 L 321.63281 158.31641 L 325.44141 148.79297 L 344.63672 148.79297 L 348.44922 158.31641 L 365.39453 158.31641 L 342.39062 100.94531 L 328.73242 100.94531 z M 334.92383 119.61133 L 341.04297 137.98828 L 328.80273 137.98828 L 334.92383 119.61133 z "  />
     <path d="M 24.982422 100.94531 L 0.93945312 158.31641 L 17.882812 158.31641 L 21.691406 148.79297 L 40.888672 148.79297 L 44.699219 158.31641 L 61.644531 158.31641 L 38.638672 100.94531 L 24.982422 100.94531 z M 31.173828 119.61133 L 37.294922 137.98828 L 25.052734 137.98828 L 31.173828 119.61133 z " />
     <path d="M 64.333984 100.94531 L 64.333984 158.31641 L 78.845703 158.31641 L 78.845703 126.16797 L 90.617188 158.31641 L 101.52344 158.31641 L 113.29102 125.98438 L 113.29102 158.31641 L 127.80469 158.31641 L 127.80469 100.94531 L 108.22266 100.94531 L 96.142578 134.81836 L 83.914062 100.94531 L 64.333984 100.94531 z " />
     <path d="M 134.87109 100.94531 L 134.87109 158.31641 L 169.99219 158.31641 L 169.99219 145.2207 L 149.88867 145.2207 L 149.88867 134.66211 L 169.0918 134.66211 L 169.0918 122.81641 L 149.88867 122.81641 L 149.88867 112.79102 L 169.99219 112.79102 L 169.99219 100.94531 L 134.87109 100.94531 z " />
     <path d="M 177.54688 100.94531 L 177.54688 158.31641 L 191.98242 158.31641 L 191.98242 139.60742 L 204.81445 158.31641 L 222.21484 158.31641 L 207.26953 138.61133 C 209.91578 137.95121 211.89094 137.06054 214.99219 134.37305 C 219.56594 130.36668 221.19336 123.10008 221.19336 119.14258 C 221.19336 111.63183 216.43711 106.1207 213.59961 104.0332 C 209.81211 101.2452 205.16586 100.94531 198.06836 100.94531 L 177.54688 100.94531 z M 191.98242 112.79102 L 197.90625 112.79102 C 206.9675 112.79102 207.42578 118.76219 207.42578 119.96094 C 207.42578 122.16069 206.49875 127.27734 197.90625 127.27734 L 191.98242 127.27734 L 191.98242 112.79102 z "  />
     <path d="M 228.7168 100.94531 L 228.7168 158.31641 L 242.48242 158.31641 L 242.48242 100.94531 L 228.7168 100.94531 z "  />
     <path d="M 278.4082 99.263672 C 261.21195 99.263672 247.26953 112.81347 247.26953 129.52734 C 247.26953 146.24072 261.21195 159.78906 278.4082 159.78906 C 293.17195 159.78906 305.52672 149.80176 308.73047 136.40039 L 292.26562 136.40039 C 289.68937 141.29789 284.45695 144.6582 278.4082 144.6582 C 269.8107 144.6582 262.83789 137.88472 262.83789 129.52734 C 262.83789 121.17034 269.8107 114.39453 278.4082 114.39453 C 284.28695 114.39453 289.39758 117.56151 292.04883 122.23438 L 308.63086 122.23438 C 305.27211 109.0435 293.0182 99.263672 278.4082 99.263672 z "  />
     <path d="M 185.89258 169.26562 C 72.295272 169.2287 2.9726562 189.31641 2.9726562 189.31641 C 182.13874 161.8164 325.05492 194.31641 329.63867 196.81641 C 332.55617 193.89894 353.80617 187.23292 365.88867 185.56641 C 298.31094 173.45703 237.52772 169.28241 185.89258 169.26562 z "  />
     </svg>
